<svg xmlns="http://www.w3.org/2000/svg" version="1.0" preserveAspectRatio="xMidYMid meet" viewBox="177.7 176.4 428.3 413.6">
  <metadata>
    <rdf:RDF xmlns:rdf="http://www.w3.org/1999/02/22-rdf-syntax-ns#" xmlns:rdfs="http://www.w3.org/2000/01/rdf-schema#" xmlns:dc="http://purl.org/dc/elements/1.1/">
      <rdf:Description dc:format="image/svg+xml" dc:Label="1" dc:ContentProducer="001191330110MACRLGPT8B00000" dc:ProduceID="350400645" dc:ReservedCode1="76JpdC4loRmAwT7fxKqewayCjveRcSLrEg5yE9GuGvc=" dc:ContentPropagator="001191330110MACRLGPT8B00000" dc:PropagateID="350400645" dc:ReservedCode2="76JpdC4loRmAwT7fxKqewayCjveRcSLrEg5yE9GuGvc="/>
    </rdf:RDF>
  </metadata>
  <g transform="translate(0.000000,800.000000) scale(0.100000,-0.100000)" fill="#000000" stroke="none">
    <path d="M3905 6231 c-85 -23 -109 -46 -242 -231 -137 -190 -605 -832 -630 -863 -21 -27 -22 -27 -60 -13 -21 8 -123 46 -228 85 -104 38 -304 112 -443 165 -217 83 -261 96 -313 96 -106 0 -183 -62 -209 -169 -11 -46 -1 -103 194 -1087 114 -572 214 -1067 222 -1102 32 -124 134 -240 249 -284 l60 -23 1420 0 1420 0 67 32 c92 43 151 101 193 187 31 64 54 170 245 1126 115 580 210 1078 210 1106 0 142 -131 247 -265 211 -27 -7 -236 -89 -463 -181 -406 -165 -414 -168 -434 -149 -12 10 -182 234 -380 498 -197 264 -372 496 -388 516 -50 62 -154 99 -225 80z m68 -433 c5 -14 665 -895 708 -945 51 -61 103 -86 188 -91 l77 -4 275 110 c151 61 314 126 363 146 49 20 91 34 94 31 3 -3 -72 -395 -167 -873 -95 -477 -177 -890 -182 -919 -8 -40 -18 -59 -45 -82 l-35 -31 -1324 0 c-979 0 -1331 3 -1349 12 -14 6 -33 22 -42 35 -14 22 -388 1862 -380 1870 2 2 97 -32 212 -76 330 -125 567 -209 619 -221 65 -15 147 2 205 41 51 35 52 37 366 469 319 441 393 540 403 540 5 0 11 -6 14 -12z"/>
    <path d="M2707 2435 c-64 -22 -100 -59 -117 -121 -22 -77 18 -160 94 -195 39 -18 94 -19 1216 -19 1125 0 1177 1 1216 19 59 27 87 72 92 146 3 50 0 66 -20 95 -43 64 -73 76 -200 83 -62 3 -592 5 -1178 5 -847 0 -1073 -2 -1103 -13z"/>
  </g>
</svg>